<?xml version="1.0"?><svg width="744.09448819" height="1052.3622047" xmlns="http://www.w3.org/2000/svg">
 <title>Camera Icon</title>

 <metadata id="metadata12390">image/svg+xmlOther map symbolsMohamed IbrahimPublic Domainclker.comother map symbols</metadata>
 <g>
  <title>Layer 1</title>
  <g id="layer1">
   <path fill="#ffffff" fill-rule="nonzero" id="path2792" d="m213.577927,60.211739c-24.430023,0 -44.34433,19.869148 -44.34433,44.299171l0,339.988266c0,24.430023 19.914307,44.253998 44.34433,44.253998l339.943069,0c24.430054,0 44.254028,-19.823975 44.254028,-44.253998l0,-339.988266c0,-24.430023 -19.823975,-44.299171 -44.254028,-44.299171l-339.943069,0z"/>
   <path fill="#231f20" fill-rule="nonzero" id="path2794" d="m367.92511,167.279358l30.435913,0l0,-14.721222l-30.435913,0l0,14.721222z"/>
   <path fill="#231f20" fill-rule="nonzero" id="path2796" d="m561.694458,373.015381c0,15.895325 -12.960083,28.855438 -28.900574,28.855438l-298.579132,0c-15.940491,0 -28.810272,-12.960114 -28.810272,-28.855438l0,-117.227966l138.903442,0c-4.515747,9.799072 -7.044525,20.546509 -7.044525,31.971252c0,42.944458 34.816162,77.805786 77.76062,77.805786c42.944458,0 77.805786,-34.861328 77.805786,-77.805786c0,-11.424744 -2.664276,-22.17218 -7.044525,-31.926117l75.999512,0l-0.090332,117.182831zm-96.907257,-85.256714c0,27.455566 -22.307617,49.763184 -49.763184,49.763184c-27.500732,0 -49.80835,-22.307617 -49.80835,-49.763184c0,-9.3927 2.709442,-18.062866 7.31546,-25.55896c1.30957,-2.212708 2.799744,-4.244781 4.515717,-6.231689c9.076599,-10.882874 22.623749,-18.0177 37.977173,-18.0177c15.353424,0 28.94574,7.179993 38.022308,18.108032c1.670837,1.941742 3.161011,3.973816 4.425415,6.141357c4.560883,7.496094 7.31546,16.16626 7.31546,25.55896m-230.572449,-111.40271l298.579132,0c15.940491,0 28.900574,12.960098 28.900574,28.94574l0,42.944458l-80.063629,-0.090317c-13.592316,-22.759201 -38.202972,-38.202957 -66.606812,-38.202957c-28.40387,0 -52.924194,15.353424 -66.561676,38.022324l-142.967545,-0.090317l-0.090317,-42.583191c0,-15.985641 12.869781,-28.94574 28.810272,-28.94574m19.507889,-13.637466l26.552414,0l2.212677,9.573318l-31.835785,0l3.070694,-9.573318zm86.611435,-16.075943l85.888916,0l16.256592,25.920197l-119.892273,0l17.746765,-25.920197zm144.006165,10.973175l35.403229,0l5.734924,14.766403l-47.369812,0l6.231659,-14.766403zm69.180756,-106.435413l-339.943069,0c-29.442459,0 -53.330612,23.888134 -53.330612,53.330601l0,339.988266c0,29.442444 23.888153,53.330597 53.330612,53.330597l339.943069,0c29.442505,0 53.330627,-23.888153 53.330627,-53.330597l0,-339.988266c0,-29.442467 -23.888123,-53.330601 -53.330627,-53.330601"/>
  </g>
 </g>
</svg>